<svg fill="#000000" xmlns="http://www.w3.org/2000/svg"  viewBox="0 0 24 24" width="24px" height="24px"><path d="M 12 2 C 11.011719 2 10.140625 2.40625 9.59375 3.023438 C 8.03125 3.140625 7 3.941406 7 5.101563 C 7 5.578125 7.230469 5.929688 7.539063 6.195313 C 8.855469 5.4375 10.375 5 12 5 C 13.625 5 15.144531 5.4375 16.460938 6.195313 C 16.769531 5.929688 17 5.578125 17 5.101563 C 17 3.941406 15.96875 3.140625 14.40625 3.023438 C 13.859375 2.40625 12.988281 2 12 2 Z M 12 6 C 7.582031 6 4 9.582031 4 14 C 4 18.417969 7.582031 22 12 22 C 16.417969 22 20 18.417969 20 14 C 20 9.582031 16.417969 6 12 6 Z M 9.132813 8.71875 L 10.65625 10.25 C 11.078125 10.097656 11.527344 10 12 10 C 12.476563 10 12.925781 10.089844 13.347656 10.238281 L 14.871094 8.71875 C 15.167969 8.890625 15.449219 9.078125 15.710938 9.289063 C 17.101563 10.378906 18 12.089844 18 14 C 18 15.398438 17.519531 16.691406 16.710938 17.710938 L 16 17 C 16.628906 16.171875 17 15.128906 17 14 C 17 12.371094 16.210938 10.910156 15 10 L 14.28125 10.71875 C 14.671875 10.992188 15.007813 11.328125 15.28125 11.71875 L 14.554688 12.445313 C 14.304688 12.039063 13.957031 11.699219 13.550781 11.449219 L 12 13 L 13 13 L 13 14 L 12 14 L 12 15 L 13 15 L 13 16 L 12 16 L 12 17 C 13.085938 17 14.027344 16.417969 14.554688 15.554688 L 15.28125 16.28125 C 14.558594 17.316406 13.359375 18 12 18 L 12 19 L 11 19 L 11 17.859375 C 9.277344 17.414063 8 15.863281 8 14 C 8 12.640625 8.683594 11.441406 9.71875 10.71875 L 9 10 C 7.789063 10.910156 7 12.371094 7 14 C 7 15.128906 7.371094 16.171875 8 17 L 7.289063 17.710938 C 6.480469 16.691406 6 15.398438 6 14 C 6 12.089844 6.898438 10.378906 8.289063 9.289063 C 8.550781 9.078125 8.832031 8.890625 9.132813 8.71875 Z M 12 13 L 10.445313 11.445313 C 9.582031 11.972656 9 12.914063 9 14 C 9 15.300781 9.839844 16.402344 11 16.816406 L 11 13 Z M 12 11 C 11.816406 11 11.640625 11.023438 11.464844 11.054688 L 12 11.589844 L 12.519531 11.070313 C 12.347656 11.039063 12.179688 11 12 11 Z"/></svg>